<?xml version="1.0" encoding="UTF-8"?>
<svg width="174px" height="128px" viewBox="0 0 174 128" version="1.1" xmlns="http://www.w3.org/2000/svg" xmlns:xlink="http://www.w3.org/1999/xlink">
    <title>编组备份</title>
    <defs>
        <path d="M0.0031942465,62.084008 C-0.343229543,96.7157169 27.5320217,125.068991 62.2617185,125.413482 L62.2617185,125.413482 C96.9923643,125.757972 125.426639,97.9630755 125.772114,63.332313 L125.772114,63.332313 C126.118538,28.7006041 98.2432864,0.34732974 63.5135896,0.00283920768 L63.5135896,0.00283920768 C63.2990916,0 63.0874409,0 62.873892,0 L62.873892,0 C28.4355709,0 0.345821611,27.6661861 0.0031942465,62.084008 L0.0031942465,62.084008 Z" id="path-1"></path>
        <path d="M0.0031942465,62.0849544 C-0.343229543,96.7166633 27.5320217,125.069938 62.2617185,125.414428 L62.2617185,125.414428 C96.9923643,125.758919 125.426639,97.9640219 125.772114,63.3332594 L125.772114,63.3332594 C126.118538,28.7015505 98.2432864,0.348276143 63.5135896,0.00378561024 L63.5135896,0.00378561024 C63.2990916,0.00189280512 63.0874409,0 62.8729429,0 L62.8729429,0 C28.4355709,0.00189280512 0.345821611,27.6671325 0.0031942465,62.0849544 L0.0031942465,62.0849544 Z" id="path-3"></path>
        <path d="M0.00200301349,49.5536381 C0.448082962,84.977486 169.559839,112.546193 169.559839,112.546193 L169.559839,112.546193 C169.559839,112.546193 34.653873,75.6364927 29.0921103,48.020466 L29.0921103,48.020466 C23.5303475,20.4044392 132.876881,0 132.876881,0 L132.876881,0 C132.876881,0 -0.595933939,2.67831925 0.00200301349,49.5536381 L0.00200301349,49.5536381 Z" id="path-5"></path>
        <path d="M0.00200301349,49.5536381 C0.448082962,84.977486 169.559839,112.546193 169.559839,112.546193 L169.559839,112.546193 C169.559839,112.546193 34.653873,75.6364927 29.0921103,48.020466 L29.0921103,48.020466 C23.5303475,20.4044392 132.876881,0 132.876881,0 L132.876881,0 C132.876881,0 -0.595933939,2.67831925 0.00200301349,49.5536381" id="path-7"></path>
    </defs>
    <g id="页面-1" stroke="none" stroke-width="1" fill="none" fill-rule="evenodd">
        <g id="编组备份">
            <g id="编组" transform="translate(0.000000, 0.000946)">
                <mask id="mask-2" fill="white">
                    <use xlink:href="#path-1"></use>
                </mask>
                <g id="Clip-2"></g>
                <polygon id="Fill-1" fill="#202934" mask="url(#mask-2)" points="-0.170492202 125.576263 125.946749 125.576263 125.946749 -0.162781241 -0.170492202 -0.162781241"></polygon>
            </g>
            <g id="编组" transform="translate(0.000000, -0.000000)">
                <mask id="mask-4" fill="white">
                    <use xlink:href="#path-3"></use>
                </mask>
                <g id="Clip-4"></g>
                <polygon id="Fill-3" fill="#202934" mask="url(#mask-4)" points="-0.170492202 125.577209 125.946749 125.577209 125.946749 116.595849 -0.170492202 116.595849"></polygon>
                <polygon id="Fill-5" fill="#202934" mask="url(#mask-4)" points="-0.170492202 116.595849 125.946749 116.595849 125.946749 107.614489 -0.170492202 107.614489"></polygon>
                <polygon id="Fill-6" fill="#202934" mask="url(#mask-4)" points="-0.170492202 107.614489 125.946749 107.614489 125.946749 98.6331285 -0.170492202 98.6331285"></polygon>
                <polygon id="Fill-7" fill="#202934" mask="url(#mask-4)" points="-0.170492202 98.6331285 125.946749 98.6331285 125.946749 89.6517682 -0.170492202 89.6517682"></polygon>
                <polygon id="Fill-8" fill="#202934" mask="url(#mask-4)" points="-0.170492202 89.6517682 125.946749 89.6517682 125.946749 80.6704079 -0.170492202 80.6704079"></polygon>
                <polygon id="Fill-9" fill="#202934" mask="url(#mask-4)" points="-0.170492202 80.6704079 125.946749 80.6704079 125.946749 71.6890476 -0.170492202 71.6890476"></polygon>
                <polygon id="Fill-10" fill="#202934" mask="url(#mask-4)" points="-0.170492202 71.6890476 125.946749 71.6890476 125.946749 62.7076873 -0.170492202 62.7076873"></polygon>
                <polygon id="Fill-11" fill="#202934" mask="url(#mask-4)" points="-0.170492202 62.7076873 125.946749 62.7076873 125.946749 53.726327 -0.170492202 53.726327"></polygon>
                <polygon id="Fill-12" fill="#202934" mask="url(#mask-4)" points="-0.170492202 53.726327 125.946749 53.726327 125.946749 44.7449667 -0.170492202 44.7449667"></polygon>
                <polygon id="Fill-13" fill="#202934" mask="url(#mask-4)" points="-0.170492202 44.7449667 125.946749 44.7449667 125.946749 35.7636064 -0.170492202 35.7636064"></polygon>
                <polygon id="Fill-14" fill="#202934" mask="url(#mask-4)" points="-0.170492202 35.7636064 125.946749 35.7636064 125.946749 26.7822461 -0.170492202 26.7822461"></polygon>
                <polygon id="Fill-15" fill="#202934" mask="url(#mask-4)" points="-0.170492202 26.7822461 125.946749 26.7822461 125.946749 17.8008858 -0.170492202 17.8008858"></polygon>
                <polygon id="Fill-16" fill="#202934" mask="url(#mask-4)" points="-0.170492202 17.8008858 125.946749 17.8008858 125.946749 8.81952547 -0.170492202 8.81952547"></polygon>
                <polygon id="Fill-17" fill="#202934" mask="url(#mask-4)" points="-0.170492202 125.577209 125.946749 125.577209 125.946749 -0.161834838 -0.170492202 -0.161834838"></polygon>
            </g>
            <g id="编组" transform="translate(4.440161, 15.453807)">
                <mask id="mask-6" fill="white">
                    <use xlink:href="#path-5"></use>
                </mask>
                <g id="Clip-19"></g>
                <polygon id="Fill-18" fill="#0F3A59" mask="url(#mask-6)" points="-0.168836116 112.707081 169.721187 112.707081 169.721187 101.425962 -0.168836116 101.425962"></polygon>
                <polygon id="Fill-20" fill="#11395C" mask="url(#mask-6)" points="-0.168836116 101.425962 169.721187 101.425962 169.721187 90.1353799 -0.168836116 90.1353799"></polygon>
                <polygon id="Fill-21" fill="#12385E" mask="url(#mask-6)" points="-0.168836116 90.1353799 169.721187 90.1353799 169.721187 78.8447974 -0.168836116 78.8447974"></polygon>
                <polygon id="Fill-22" fill="#143760" mask="url(#mask-6)" points="-0.168836116 78.8447974 169.721187 78.8447974 169.721187 67.5636788 -0.168836116 67.5636788"></polygon>
                <polygon id="Fill-23" fill="#153563" mask="url(#mask-6)" points="-0.168836116 67.5636788 169.721187 67.5636788 169.721187 56.2730963 -0.168836116 56.2730963"></polygon>
                <polygon id="Fill-24" fill="#173465" mask="url(#mask-6)" points="-0.168836116 56.2730963 169.721187 56.2730963 169.721187 44.9825137 -0.168836116 44.9825137"></polygon>
                <polygon id="Fill-25" fill="#183267" mask="url(#mask-6)" points="-0.168836116 44.9825137 169.721187 44.9825137 169.721187 33.6919312 -0.168836116 33.6919312"></polygon>
                <polygon id="Fill-26" fill="#19316A" mask="url(#mask-6)" points="-0.168836116 33.6919312 169.721187 33.6919312 169.721187 22.4108126 -0.168836116 22.4108126"></polygon>
                <polygon id="Fill-27" fill="#1A2F6C" mask="url(#mask-6)" points="-0.168836116 22.4108126 169.721187 22.4108126 169.721187 11.1202301 -0.168836116 11.1202301"></polygon>
                <polygon id="Fill-28" fill="#1B2E6E" mask="url(#mask-6)" points="-0.168836116 11.1202301 169.721187 11.1202301 169.721187 -0.170352461 -0.168836116 -0.170352461"></polygon>
            </g>
            <path d="M137.317043,15.4538074 C137.317043,15.4538074 3.84422733,18.1321267 4.44216429,65.0074455 C4.88824423,100.431293 174,128 174,128 C174,128 39.0940343,91.0903001 33.5322716,63.4742734 C27.9705088,35.8582466 137.317043,15.4538074 137.317043,15.4538074" id="Fill-29" fill="#202934"></path>
            <g id="编组" transform="translate(4.440161, 15.453807)">
                <mask id="mask-8" fill="white">
                    <use xlink:href="#path-7"></use>
                </mask>
                <g id="Clip-32"></g>
                <path d="M-4.43734667,46.6313363 C-4.09187199,11.9996274 24.3424029,-15.7952695 59.0730487,-15.4507789 C93.8027455,-15.1062884 121.677997,13.2479323 121.331573,47.8786949 C120.986098,82.5104038 92.5518234,110.305301 57.8221266,109.96081 C23.0914808,109.61632 -4.78282135,81.2630452 -4.43734667,46.6313363" id="Fill-31" fill="#FFFFFF" mask="url(#mask-8)"></path>
            </g>
            <g id="编组" transform="translate(52.343558, 37.908008)">
                <path d="M65.2985116,2.11440999 C65.2985116,2.11440999 27.8088138,-6.69659786 24.3920312,11.6541478 C21.7060605,26.1719631 51.8306936,24.1561256 51.8306936,29.9575733 C51.8306936,41.1913717 0,38.9294696 0,38.9294696 C0,38.9294696 15.8310926,44.7403813 32.6587469,44.0873636 C49.4864011,43.4343458 65.507315,39.3553508 65.507315,31.1878967 C65.507315,12.45859 30.8269718,23.3990036 39.0936874,7.60354484 C42.9945142,0.240532919 65.2985116,2.11440999 65.2985116,2.11440999" id="Fill-33" fill="#FFFFFF"></path>
                <path d="M116.797018,54.0435185 C115.101914,52.3125482 112.769011,51.3519496 110.343095,51.3841273 L107.941856,51.3841273 C107.689394,48.1133601 106.252447,45.045123 103.898664,42.752936 C101.316146,40.1077408 97.7484551,38.6502809 94.0469406,38.7307251 C91.2072146,38.711797 88.4301297,39.5645057 86.09343,41.1724437 C83.8288625,42.7614536 82.0882016,44.9845532 81.09164,47.560661 C80.9435794,47.8587778 80.9435794,48.2089467 81.09164,48.5070635 C81.216922,48.8013947 81.4617914,49.0285314 81.7655054,49.1316892 C82.0692194,49.2604 82.4108977,49.2604 82.7146117,49.1316892 C83.00314,49.0048713 83.2328237,48.7758419 83.360004,48.4881355 C85.6843652,42.5920475 92.3613279,39.6913237 98.2733108,42.0090636 C102.67052,43.7315162 105.563396,47.9600429 105.569091,52.6712348 C105.558651,52.9920653 105.68678,53.3015389 105.92026,53.5229971 C106.1433,53.7539193 106.452709,53.8807373 106.774456,53.8731661 L110.324113,53.8731661 C114.04461,53.9195398 117.045684,56.9205823 117.08175,60.6304803 C117.094088,62.4097172 116.382259,64.1170274 115.107609,65.3624932 C113.871872,66.6552791 112.153041,67.3783306 110.362077,67.3594026 L102.769227,67.3594026 L102.769227,62.6747099 C102.775871,62.5005718 102.714179,62.3311658 102.598388,62.2015086 C102.468361,62.0775299 102.293725,62.0131745 102.114344,62.0216921 L100.121221,62.0216921 C99.9418397,62.0131745 99.7672041,62.0775299 99.6371766,62.2015086 C99.5175892,62.3292729 99.4558973,62.5005718 99.4663374,62.6747099 L99.4663374,63.072199 C99.4672865,63.2359266 99.5280293,63.3949222 99.6371766,63.5170082 C99.7615095,63.6504509 99.9380433,63.7233239 100.121221,63.7157527 C100.285416,63.7166991 100.444866,63.7772689 100.567301,63.8861052 C100.701125,64.0062983 100.774206,64.17949 100.766613,64.3593064 L100.766613,69.2995278 C100.756173,69.4755587 100.821661,69.647804 100.946943,69.7727291 C101.073174,69.8957614 101.244963,69.9610632 101.421496,69.9525456 L102.114344,69.9525456 C102.304165,69.9591704 102.488292,69.8834582 102.61737,69.744337 L110.371569,69.744337 C112.803179,69.7774611 115.139878,68.8045593 116.825491,67.0565537 C118.583236,65.3587075 119.561765,63.013522 119.530444,60.5736962 C119.570307,58.1357632 118.586083,55.7924705 116.816,54.1097667 L116.797018,54.0435185 Z M89.3678467,58.7755313 C88.7794008,58.7755313 88.4946689,58.4253624 88.4946689,57.6493123 L88.4946689,55.5104425 C88.4946689,54.7722485 88.7794008,54.4126155 89.3678467,54.4126155 C89.9562926,54.4126155 90.2410245,54.7722485 90.2410245,55.5104425 L90.2410245,57.6587763 C90.1935691,58.4158984 89.8993462,58.7944594 89.3203914,58.8039234 L89.3678467,58.7755313 Z M90.5447385,52.9646196 C90.1783834,52.8094096 89.7854534,52.7261262 89.3868288,52.7185549 C88.995797,52.723287 88.6076126,52.7904815 88.2384102,52.9172995 C87.1459889,53.3223598 86.4540904,54.3984195 86.53951,55.5577626 L86.53951,57.6587763 C86.4626324,58.8039234 87.15548,59.8620015 88.2384102,60.2519193 C88.6009688,60.4213254 88.995797,60.5083944 89.3963199,60.507448 C89.8091811,60.51218 90.2172968,60.425111 90.5921938,60.2519193 C91.6048902,59.7985925 92.2265548,58.7632281 92.1487281,57.6587763 L92.1487281,55.6145468 C92.2360458,54.4741317 91.5659768,53.4103752 90.4972832,52.9930117 L90.5447385,52.9646196 Z M84.4894404,52.5198104 L82.4868262,52.5198104 C82.306496,52.5122392 82.1328096,52.5851122 82.0122731,52.7185549 C81.9031258,52.8406409 81.842383,52.9996365 81.8414339,53.1633641 L81.8414339,53.6176374 C81.8395357,53.776633 81.9002785,53.9299502 82.0122731,54.0435185 C82.1347078,54.159926 82.2989032,54.2214422 82.4678441,54.213871 C82.6462761,54.2129246 82.8180643,54.2848512 82.9423972,54.4126155 C83.0686284,54.5299694 83.1407604,54.6946435 83.1417095,54.8668888 L83.1417095,59.8544302 C83.1426586,60.0181579 83.2034014,60.1771535 83.3125487,60.2992395 C83.4160012,60.429843 83.5726038,60.5065016 83.7396465,60.507448 L84.4894404,60.507448 C84.6602796,60.5008232 84.8206785,60.425111 84.9355204,60.2992395 C85.0598533,60.1837783 85.1319854,60.0238363 85.1348327,59.8544302 L85.1348327,53.1633641 C85.1319854,52.9939581 85.0598533,52.834016 84.9355204,52.7185549 C84.8225767,52.5907906 84.6602796,52.518864 84.4894404,52.5198104 Z M96.1444655,60.497984 L96.8468041,60.497984 C97.1704494,60.5311081 97.4589777,60.2964002 97.4921964,59.973677 C97.4959928,59.9339281 97.4959928,59.8941792 97.4921964,59.8544302 L97.4921964,53.1633641 C97.4912473,52.9996365 97.4305045,52.8406409 97.3213573,52.7185549 C97.2017699,52.5841658 97.0271343,52.5112928 96.8468041,52.5198104 L94.8441899,52.5198104 C94.6638597,52.5112928 94.4892241,52.5841658 94.3696367,52.7185549 C94.2604895,52.8406409 94.1997467,52.9996365 94.1987976,53.1633641 L94.1987976,53.6176374 C94.1968994,53.776633 94.2576422,53.9299502 94.3696367,54.0435185 C94.4977661,54.1618188 94.6695543,54.223335 94.8441899,54.213871 C95.0159781,54.218603 95.1792244,54.2895832 95.2997609,54.4126155 C95.425992,54.5299694 95.4981241,54.6946435 95.4990732,54.8668888 L95.4990732,59.8544302 C95.5000223,60.0181579 95.5607651,60.1771535 95.6699123,60.2992395 C95.7894997,60.4336286 95.9641353,60.5065016 96.1444655,60.497984 L96.1444655,60.497984 Z M95.8027872,68.5518698 C95.3377251,68.5518698 95.1004486,68.2395569 95.1004486,67.6054672 L95.1004486,65.8167664 C95.1004486,65.2110687 95.3377251,64.8703638 95.8027872,64.8703638 C96.2678493,64.8703638 96.5051259,65.1637486 96.5051259,65.8167664 L96.5051259,67.6054672 C96.4956348,68.2395569 96.2678493,68.5518698 95.7932962,68.5518698 L95.8027872,68.5518698 Z M96.7518935,63.7157527 C96.452925,63.5832563 96.1292798,63.5151154 95.8027872,63.5170082 C95.4753456,63.5122761 95.1517003,63.5804171 94.8536809,63.7157527 C93.9482336,64.0280655 93.3702278,64.9120055 93.4490037,65.8640865 L93.4490037,67.5581471 C93.3740243,68.5092817 93.9510809,69.3913289 94.8536809,69.7064809 C95.1517003,69.8399237 95.4753456,69.9080647 95.8027872,69.9052254 C96.1444655,69.9033326 96.4832964,69.8361381 96.7993488,69.7064809 C97.6260204,69.3222415 98.1261994,68.4648008 98.0521691,67.5581471 L98.0521691,65.8640865 C98.1233521,64.9441832 97.6013436,64.0810641 96.7518935,63.7157527 L96.7518935,63.7157527 Z M89.3203914,68.2017008 C88.7319455,68.2017008 88.4472136,67.8231398 88.4472136,67.0565537 L88.4472136,64.917684 C88.4472136,64.17949 88.7319455,63.810393 89.3203914,63.810393 C89.9088373,63.810393 90.1935691,64.17949 90.1935691,64.917684 L90.1935691,67.0565537 C90.1935691,67.8231398 89.8993462,68.2017008 89.3203914,68.2017008 L89.3203914,68.2017008 Z M90.4972832,62.3718611 C90.1328263,62.2100262 89.7389472,62.1229572 89.3393735,62.1163324 C88.9483417,62.12485 88.5601572,62.1948838 88.1909549,62.3245409 C87.0985336,62.7296012 86.4066351,63.8056609 86.4920547,64.9650041 L86.4920547,67.0092336 C86.4151771,68.1543807 87.1080247,69.2124588 88.1909549,69.6023766 C88.9407489,69.9298319 89.7949445,69.9298319 90.5447385,69.6023766 C91.5536384,69.1462106 92.1705575,68.1108462 92.0917817,67.0092336 L92.0917817,64.9650041 C92.1724557,63.8539275 91.5299108,62.8166703 90.4972832,62.3907891 L90.4972832,62.3718611 Z M84.4419851,61.9270519 L82.4393709,61.9270519 C82.2609389,61.915695 82.0863034,61.9857288 81.9648178,62.1163324 C81.8556705,62.2422039 81.7949277,62.4040387 81.7939677,62.5706056 L81.7939677,63.0248788 C81.7930295,63.1838745 81.8537723,63.3362453 81.9648178,63.45076 C82.0872525,63.5662211 82.2514479,63.6277373 82.4203888,63.6211124 C82.5988207,63.620166 82.770609,63.6920926 82.8949419,63.819857 C83.0192748,63.9353181 83.0914069,64.0952601 83.0942542,64.2646662 L83.0942542,69.2616717 C83.0952033,69.4253994 83.1559461,69.584395 83.2650934,69.7064809 C83.369495,69.8342453 83.5270467,69.9071183 83.6921912,69.9052614 L84.4419851,69.9052614 C84.6137734,69.9033326 84.7760705,69.826674 84.8880651,69.6970169 C85.0142962,69.5834486 85.0864283,69.4216137 85.0873774,69.2522077 L85.0873774,62.6273898 C85.0911738,62.440002 85.0190417,62.2601856 84.8880651,62.1257964 C84.7722741,62.0037105 84.610926,61.9355695 84.4419851,61.9365159 L84.4419851,61.9270519 Z" id="Fill-35" fill="#202934"></path>
            </g>
        </g>
    </g>
</svg>