<?xml version="1.0" encoding="utf-8"?>
<!-- Generator: Adobe Illustrator 25.3.1, SVG Export Plug-In . SVG Version: 6.00 Build 0)  -->
<svg version="1.1" id="图层_1" xmlns="http://www.w3.org/2000/svg" xmlns:xlink="http://www.w3.org/1999/xlink" x="0px" y="0px"
	 viewBox="0 0 183.7 128" style="enable-background:new 0 0 183.7 128;" xml:space="preserve">
<style type="text/css">
	.st0{fill:#FFFFFF;}
</style>
<g>
	<path class="st0" d="M137.3,100.5h-2c-0.2,0-0.4,0.1-0.5,0.2c-0.1,0.1-0.2,0.3-0.2,0.5v0.5c0,0.2,0.1,0.3,0.2,0.4
		c0.1,0.1,0.3,0.2,0.5,0.2c0.2,0,0.4,0.1,0.5,0.2c0.1,0.1,0.2,0.3,0.2,0.4v5c0,0.2,0.1,0.3,0.2,0.4c0.1,0.1,0.3,0.2,0.4,0.2h0.8
		c0.2,0,0.3-0.1,0.4-0.2c0.1-0.1,0.2-0.3,0.2-0.4v-6.7c0-0.2-0.1-0.4-0.2-0.5C137.7,100.6,137.5,100.5,137.3,100.5L137.3,100.5z
		 M143.4,101c-0.4-0.2-0.8-0.3-1.2-0.3c-0.4,0-0.8,0.1-1.2,0.2c-1.1,0.4-1.8,1.5-1.7,2.7v2.1c-0.1,1.2,0.6,2.2,1.7,2.6
		c0.8,0.3,1.6,0.3,2.4,0c1-0.5,1.6-1.5,1.6-2.6v-2.1C145.1,102.5,144.4,101.4,143.4,101L143.4,101z M142.2,106.8
		c-0.6,0-0.9-0.4-0.9-1.2v-2.2c0-0.7,0.3-1.1,0.9-1.1c0.6,0,0.9,0.4,0.9,1.1v2.2C143.1,106.4,142.8,106.8,142.2,106.8z M149.7,102.3
		c-0.3-0.1-0.6-0.2-1-0.2c-0.3,0-0.7,0.1-1,0.2c-0.9,0.3-1.5,1.2-1.4,2.2v1.7c-0.1,1,0.5,1.8,1.4,2.2c0.3,0.1,0.6,0.2,1,0.2
		c0.3,0,0.7-0.1,1-0.2c0.8-0.4,1.3-1.2,1.3-2.2v-1.7C151.1,103.5,150.5,102.7,149.7,102.3z M148.7,107.2c-0.5,0-0.7-0.3-0.7-1v-1.8
		c0-0.6,0.2-1,0.7-1s0.7,0.3,0.7,1v1.8C149.4,106.9,149.2,107.2,148.7,107.2L148.7,107.2z M149.1,99.1h0.7c0.3,0,0.6-0.2,0.6-0.5
		c0,0,0-0.1,0-0.1v-6.7c0-0.2-0.1-0.3-0.2-0.4c-0.1-0.1-0.3-0.2-0.5-0.2h-2c-0.2,0-0.4,0.1-0.5,0.2c-0.1,0.1-0.2,0.3-0.2,0.4v0.5
		c0,0.2,0.1,0.3,0.2,0.4c0.1,0.1,0.3,0.2,0.5,0.2c0.2,0,0.3,0.1,0.5,0.2c0.1,0.1,0.2,0.3,0.2,0.5v5c0,0.2,0.1,0.3,0.2,0.4
		C148.7,99,148.9,99.1,149.1,99.1z M137.4,91h-2c-0.2,0-0.4,0.1-0.5,0.2c-0.1,0.1-0.2,0.3-0.2,0.4v0.5c0,0.2,0.1,0.3,0.2,0.4
		c0.1,0.1,0.3,0.2,0.5,0.2c0.2,0,0.4,0.1,0.5,0.2c0.1,0.1,0.2,0.3,0.2,0.5v5c0,0.2,0.1,0.3,0.2,0.4c0.1,0.1,0.3,0.2,0.4,0.2h0.8
		c0.2,0,0.3-0.1,0.4-0.2c0.1-0.1,0.2-0.3,0.2-0.4v-6.7c0-0.2-0.1-0.3-0.2-0.4C137.7,91.1,137.5,91,137.4,91L137.4,91z M143.4,91.5
		c-0.4-0.2-0.8-0.2-1.2-0.2c-0.4,0-0.8,0.1-1.2,0.2c-1.1,0.4-1.8,1.5-1.7,2.7v2.1c-0.1,1.2,0.6,2.2,1.7,2.6c0.4,0.2,0.8,0.3,1.2,0.3
		c0.4,0,0.8-0.1,1.2-0.3c1-0.5,1.6-1.5,1.6-2.6v-2.1C145.1,93,144.5,91.9,143.4,91.5L143.4,91.5z M142.3,97.3
		c-0.6,0-0.9-0.4-0.9-1.1v-2.2c0-0.7,0.3-1.1,0.9-1.1s0.9,0.4,0.9,1.1v2.2C143.1,97,142.8,97.4,142.3,97.3L142.3,97.3z M169.8,92.6
		c-1.7-1.7-4-2.7-6.5-2.7h-2.4c-0.3-3.3-1.7-6.4-4.1-8.7c-2.6-2.7-6.2-4.1-9.9-4c-2.9,0-5.6,0.8-8,2.5c-2.3,1.6-4,3.8-5,6.4
		c-0.1,0.3-0.1,0.7,0,1c0.1,0.3,0.4,0.5,0.7,0.6c0.3,0.1,0.6,0.1,1,0c0.3-0.1,0.5-0.4,0.6-0.6c2.3-5.9,9-8.9,15-6.5
		c4.4,1.7,7.3,6,7.3,10.7c0,0.3,0.1,0.6,0.4,0.9c0.2,0.2,0.5,0.4,0.9,0.4h3.6c3.7,0,6.7,3.1,6.8,6.8c0,1.8-0.7,3.5-2,4.8
		c-1.2,1.3-3,2-4.8,2h-7.6v-4.7c0-0.2-0.1-0.3-0.2-0.5c-0.1-0.1-0.3-0.2-0.5-0.2h-2c-0.2,0-0.4,0.1-0.5,0.2
		c-0.1,0.1-0.2,0.3-0.2,0.5v0.4c0,0.2,0.1,0.3,0.2,0.4c0.1,0.1,0.3,0.2,0.5,0.2c0.2,0,0.3,0.1,0.4,0.2c0.1,0.1,0.2,0.3,0.2,0.5v5
		c0,0.2,0.1,0.4,0.2,0.5c0.1,0.1,0.3,0.2,0.5,0.2h0.7c0.2,0,0.4-0.1,0.5-0.2h7.8c2.4,0,4.8-0.9,6.5-2.7c1.8-1.7,2.7-4.1,2.7-6.5
		C172.6,96.7,171.6,94.3,169.8,92.6L169.8,92.6z"/>
	<g>
		<path class="st0" d="M4.5,65.4C4,33,67.3,21.6,106.9,17.6C95.7,6.9,80.5,0.2,63.8,0C28.9-0.3,0.4,27.6,0,62.5
			c-0.3,34.9,27.6,63.4,62.5,63.8c14.5,0.1,27.9-4.6,38.7-12.8C55.2,102,4.7,84.9,4.5,65.4z"/>
		<path class="st0" d="M33.7,63.9c2.8,14.1,39.3,30.7,74.4,43.6c11.1-11.3,18-26.7,18.2-43.7c0.2-16.1-5.7-30.9-15.6-42.1
			C78.6,29.7,29.9,45.2,33.7,63.9z M104.6,68.3c0-5.8-30.2-3.8-27.5-18.4c3.4-18.5,41.1-9.6,41.1-9.6s-22.4-1.9-26.3,5.5
			c-8.3,15.9,26.5,4.9,26.5,23.7c0,8.2-16.1,12.3-33,13c-16.9,0.7-32.8-5.2-32.8-5.2S104.6,79.6,104.6,68.3z"/>
	</g>
	<g>
		<path class="st0" d="M108.2,107.2c-2.1,2.2-4.4,4.2-6.9,6c38.4,9.6,73.5,15.4,73.5,15.4S142.1,119.6,108.2,107.2z"/>
		<path class="st0" d="M110.8,21.4c15.5-3.9,27.2-6.1,27.2-6.1s-13.1,0.3-31,2.1C108.3,18.7,109.6,20,110.8,21.4z"/>
	</g>
</g>
</svg>
